<?xml version="1.0" encoding="UTF-8"?>
<!--
  sprite.svg — SF-Symbols-named icons backed by Lucide-style outlines (MIT).
  Referenced via: <use href="/assets/elements/icons/sprite.svg#name">
  IDs mirror SF Symbols naming so the <lx-icon name="..."> API stays portable.
-->
<svg xmlns="http://www.w3.org/2000/svg" style="display:none">

  <symbol id="circle" viewBox="0 0 24 24">
    <circle cx="12" cy="12" r="10"/>
  </symbol>

  <symbol id="arrow.down.circle" viewBox="0 0 24 24">
    <circle cx="12" cy="12" r="10"/>
    <path d="M8 12l4 4 4-4"/>
    <path d="M12 8v8"/>
  </symbol>

  <symbol id="arrow.right" viewBox="0 0 24 24">
    <path d="M5 12h14"/>
    <path d="M13 6l6 6-6 6"/>
  </symbol>

  <symbol id="arrow.up.right" viewBox="0 0 24 24">
    <path d="M7 17L17 7"/>
    <path d="M7 7h10v10"/>
  </symbol>

  <symbol id="book.pages" viewBox="0 0 24 24">
    <path d="M4 19.5A2.5 2.5 0 0 1 6.5 17H20"/>
    <path d="M6.5 2H20v20H6.5A2.5 2.5 0 0 1 4 19.5v-15A2.5 2.5 0 0 1 6.5 2z"/>
  </symbol>

  <symbol id="play.circle" viewBox="0 0 24 24">
    <circle cx="12" cy="12" r="10"/>
    <path d="M10 8l6 4-6 4V8z"/>
  </symbol>

  <symbol id="bubble.left.and.bubble.right" viewBox="0 0 24 24">
    <path d="M21 11.5a8.38 8.38 0 0 1-.9 3.8 8.5 8.5 0 0 1-7.6 4.7 8.38 8.38 0 0 1-3.8-.9L3 21l1.9-5.7a8.38 8.38 0 0 1-.9-3.8 8.5 8.5 0 0 1 4.7-7.6 8.38 8.38 0 0 1 3.8-.9h.5a8.48 8.48 0 0 1 8 8v.5z"/>
  </symbol>

  <symbol id="person.crop.circle" viewBox="0 0 24 24">
    <circle cx="12" cy="12" r="10"/>
    <circle cx="12" cy="10" r="3"/>
    <path d="M6.5 19a6 6 0 0 1 11 0"/>
  </symbol>

  <symbol id="sparkles" viewBox="0 0 24 24">
    <path d="M12 3l2 5 5 2-5 2-2 5-2-5-5-2 5-2z"/>
    <path d="M19 3v4M17 5h4M19 17v4M17 19h4"/>
  </symbol>

  <symbol id="hammer" viewBox="0 0 24 24">
    <path d="M15 12l-8.5 8.5a2.12 2.12 0 0 1-3-3L12 9"/>
    <path d="M17.64 15L22 10.64"/>
    <path d="M20.91 11.7L22 10.58a1 1 0 0 0 0-1.41L16.83 4a1 1 0 0 0-1.41 0l-1.12 1.13a1 1 0 0 0 0 1.41l5.17 5.16a1 1 0 0 0 1.44 0z"/>
  </symbol>

  <symbol id="link" viewBox="0 0 24 24">
    <path d="M10 13a5 5 0 0 0 7.54.54l3-3a5 5 0 0 0-7.07-7.07l-1.72 1.71"/>
    <path d="M14 11a5 5 0 0 0-7.54-.54l-3 3a5 5 0 0 0 7.07 7.07l1.71-1.71"/>
  </symbol>

  <symbol id="envelope" viewBox="0 0 24 24">
    <rect x="3" y="5" width="18" height="14" rx="2"/>
    <path d="M3 7l9 6 9-6"/>
  </symbol>

  <symbol id="logo.github" viewBox="0 0 24 24">
    <path d="M9 19c-5 1.5-5-2.5-7-3m14 6v-3.87a3.37 3.37 0 0 0-.94-2.61c3.14-.35 6.44-1.54 6.44-7A5.44 5.44 0 0 0 20 4.77 5.07 5.07 0 0 0 19.91 1S18.73.65 16 2.48a13.38 13.38 0 0 0-7 0C6.27.65 5.09 1 5.09 1A5.07 5.07 0 0 0 5 4.77a5.44 5.44 0 0 0-1.5 3.78c0 5.42 3.3 6.61 6.44 7A3.37 3.37 0 0 0 9 18.13V22"/>
  </symbol>

  <symbol id="logo.linkedin" viewBox="0 0 24 24">
    <path d="M16 8a6 6 0 0 1 6 6v7h-4v-7a2 2 0 0 0-4 0v7h-4v-7a6 6 0 0 1 6-6z"/>
    <rect x="2" y="9" width="4" height="12"/>
    <circle cx="4" cy="4" r="2"/>
  </symbol>

  <symbol id="logo.x" viewBox="0 0 24 24">
    <path d="M4 4l16 16M20 4L4 20"/>
  </symbol>

  <symbol id="sun.max" viewBox="0 0 24 24">
    <circle cx="12" cy="12" r="4"/>
    <path d="M12 2v2M12 20v2M4.93 4.93l1.41 1.41M17.66 17.66l1.41 1.41M2 12h2M20 12h2M4.93 19.07l1.41-1.41M17.66 6.34l1.41-1.41"/>
  </symbol>

  <symbol id="moon" viewBox="0 0 24 24">
    <path d="M21 12.79A9 9 0 1 1 11.21 3 7 7 0 0 0 21 12.79z"/>
  </symbol>

  <symbol id="terminal" viewBox="0 0 24 24">
    <path d="M4 17l6-6-6-6"/>
    <path d="M12 19h8"/>
  </symbol>

  <symbol id="globe" viewBox="0 0 24 24">
    <circle cx="12" cy="12" r="10"/>
    <path d="M2 12h20"/>
    <path d="M12 2a15.3 15.3 0 0 1 4 10 15.3 15.3 0 0 1-4 10 15.3 15.3 0 0 1-4-10 15.3 15.3 0 0 1 4-10z"/>
  </symbol>

  <symbol id="star.fill" viewBox="0 0 24 24">
    <path d="M12 2l3.09 6.26L22 9.27l-5 4.87 1.18 6.88L12 17.77l-6.18 3.25L7 14.14 2 9.27l6.91-1.01z" fill="currentColor"/>
  </symbol>

</svg>
